<?xml version="1.0" encoding="UTF-8" standalone="no"?>
<!-- Created with Inkscape (http://www.inkscape.org/) -->
<svg
   xmlns:dc="http://purl.org/dc/elements/1.1/"
   xmlns:cc="http://web.resource.org/cc/"
   xmlns:rdf="http://www.w3.org/1999/02/22-rdf-syntax-ns#"
   xmlns:svg="http://www.w3.org/2000/svg"
   xmlns="http://www.w3.org/2000/svg"
   xmlns:sodipodi="http://sodipodi.sourceforge.net/DTD/sodipodi-0.dtd"
   xmlns:inkscape="http://www.inkscape.org/namespaces/inkscape"
   version="1.0"
   width="300"
   height="300"
   id="svg2"
   sodipodi:version="0.32"
   inkscape:version="0.45.1"
   sodipodi:docname="gestalt_similarity.svg"
   inkscape:output_extension="org.inkscape.output.svg.inkscape"
   sodipodi:docbase="C:\Documents and Settings\Marcos\Desktop">
  <metadata
     id="metadata47">
    <rdf:RDF>
      <cc:Work
         rdf:about="">
        <dc:format>image/svg+xml</dc:format>
        <dc:type
           rdf:resource="http://purl.org/dc/dcmitype/StillImage" />
      </cc:Work>
    </rdf:RDF>
  </metadata>
  <sodipodi:namedview
     inkscape:window-height="574"
     inkscape:window-width="739"
     inkscape:pageshadow="2"
     inkscape:pageopacity="0.0"
     guidetolerance="10.0"
     gridtolerance="10.0"
     objecttolerance="10.0"
     borderopacity="1.0"
     bordercolor="#666666"
     pagecolor="#ffffff"
     id="base"
     inkscape:zoom="1.2566667"
     inkscape:cx="150"
     inkscape:cy="150"
     inkscape:window-x="202"
     inkscape:window-y="121"
     inkscape:current-layer="svg2" />
  <defs
     id="defs4" />
  <g
     transform="translate(1.214286,3.7678657)"
     style="fill:#f2f2f2;fill-opacity:1"
     id="g3165">
    <path
       d="M 49.285715,35.714287 C 49.287582,42.027433 44.17029,47.14624 37.857143,47.14624 C 31.543997,47.14624 26.426705,42.027433 26.428572,35.714287 C 26.426705,29.401141 31.543997,24.282334 37.857143,24.282334 C 44.17029,24.282334 49.287582,29.401141 49.285715,35.714287 L 49.285715,35.714287 z "
       transform="matrix(0.8802395,0,0,0.8802395,16.390932,16.062874)"
       style="fill:#f2f2f2;fill-opacity:1;fill-rule:evenodd;stroke:#000000;stroke-width:1px;stroke-linecap:butt;stroke-linejoin:miter;stroke-opacity:1"
       id="path2180" />
    <path
       d="M 49.285715,35.714287 C 49.287582,42.027433 44.17029,47.14624 37.857143,47.14624 C 31.543997,47.14624 26.426705,42.027433 26.428572,35.714287 C 26.426705,29.401141 31.543997,24.282334 37.857143,24.282334 C 44.17029,24.282334 49.287582,29.401141 49.285715,35.714287 L 49.285715,35.714287 z "
       transform="matrix(0.8802395,0,0,0.8802395,214.53379,16.062874)"
       style="fill:#f2f2f2;fill-opacity:1;fill-rule:evenodd;stroke:#000000;stroke-width:1px;stroke-linecap:butt;stroke-linejoin:miter;stroke-opacity:1"
       id="path2184" />
    <path
       d="M 49.285715,35.714287 C 49.287582,42.027433 44.17029,47.14624 37.857143,47.14624 C 31.543997,47.14624 26.426705,42.027433 26.428572,35.714287 C 26.426705,29.401141 31.543997,24.282334 37.857143,24.282334 C 44.17029,24.282334 49.287582,29.401141 49.285715,35.714287 L 49.285715,35.714287 z "
       transform="matrix(0.8802395,0,0,0.8802395,174.90521,16.062874)"
       style="fill:#f2f2f2;fill-opacity:1;fill-rule:evenodd;stroke:#000000;stroke-width:1px;stroke-linecap:butt;stroke-linejoin:miter;stroke-opacity:1"
       id="path2186" />
    <path
       d="M 49.285715,35.714287 C 49.287582,42.027433 44.17029,47.14624 37.857143,47.14624 C 31.543997,47.14624 26.426705,42.027433 26.428572,35.714287 C 26.426705,29.401141 31.543997,24.282334 37.857143,24.282334 C 44.17029,24.282334 49.287582,29.401141 49.285715,35.714287 L 49.285715,35.714287 z "
       transform="matrix(0.8802395,0,0,0.8802395,135.27665,16.062874)"
       style="fill:#f2f2f2;fill-opacity:1;fill-rule:evenodd;stroke:#000000;stroke-width:1px;stroke-linecap:butt;stroke-linejoin:miter;stroke-opacity:1"
       id="path2188" />
    <path
       d="M 49.285715,35.714287 C 49.287582,42.027433 44.17029,47.14624 37.857143,47.14624 C 31.543997,47.14624 26.426705,42.027433 26.428572,35.714287 C 26.426705,29.401141 31.543997,24.282334 37.857143,24.282334 C 44.17029,24.282334 49.287582,29.401141 49.285715,35.714287 L 49.285715,35.714287 z "
       transform="matrix(0.8802395,0,0,0.8802395,95.64807,16.062874)"
       style="fill:#f2f2f2;fill-opacity:1;fill-rule:evenodd;stroke:#000000;stroke-width:1px;stroke-linecap:butt;stroke-linejoin:miter;stroke-opacity:1"
       id="path2190" />
    <path
       d="M 49.285715,35.714287 C 49.287582,42.027433 44.17029,47.14624 37.857143,47.14624 C 31.543997,47.14624 26.426705,42.027433 26.428572,35.714287 C 26.426705,29.401141 31.543997,24.282334 37.857143,24.282334 C 44.17029,24.282334 49.287582,29.401141 49.285715,35.714287 L 49.285715,35.714287 z "
       transform="matrix(0.8802395,0,0,0.8802395,56.019503,16.062874)"
       style="fill:#f2f2f2;fill-opacity:1;fill-rule:evenodd;stroke:#000000;stroke-width:1px;stroke-linecap:butt;stroke-linejoin:miter;stroke-opacity:1"
       id="path2192" />
  </g>
  <g
     transform="translate(1.214286,82.753564)"
     style="fill:#f2f2f2;fill-opacity:1"
     id="g3173">
    <path
       d="M 49.285715,35.714287 C 49.287582,42.027433 44.17029,47.14624 37.857143,47.14624 C 31.543997,47.14624 26.426705,42.027433 26.428572,35.714287 C 26.426705,29.401141 31.543997,24.282334 37.857143,24.282334 C 44.17029,24.282334 49.287582,29.401141 49.285715,35.714287 L 49.285715,35.714287 z "
       transform="matrix(0.8802395,0,0,0.8802395,16.390932,16.062874)"
       style="fill:#f2f2f2;fill-opacity:1;fill-rule:evenodd;stroke:#000000;stroke-width:1px;stroke-linecap:butt;stroke-linejoin:miter;stroke-opacity:1"
       id="path3175" />
    <path
       d="M 49.285715,35.714287 C 49.287582,42.027433 44.17029,47.14624 37.857143,47.14624 C 31.543997,47.14624 26.426705,42.027433 26.428572,35.714287 C 26.426705,29.401141 31.543997,24.282334 37.857143,24.282334 C 44.17029,24.282334 49.287582,29.401141 49.285715,35.714287 L 49.285715,35.714287 z "
       transform="matrix(0.8802395,0,0,0.8802395,214.53379,16.062874)"
       style="fill:#f2f2f2;fill-opacity:1;fill-rule:evenodd;stroke:#000000;stroke-width:1px;stroke-linecap:butt;stroke-linejoin:miter;stroke-opacity:1"
       id="path3177" />
    <path
       d="M 49.285715,35.714287 C 49.287582,42.027433 44.17029,47.14624 37.857143,47.14624 C 31.543997,47.14624 26.426705,42.027433 26.428572,35.714287 C 26.426705,29.401141 31.543997,24.282334 37.857143,24.282334 C 44.17029,24.282334 49.287582,29.401141 49.285715,35.714287 L 49.285715,35.714287 z "
       transform="matrix(0.8802395,0,0,0.8802395,174.90521,16.062874)"
       style="fill:#f2f2f2;fill-opacity:1;fill-rule:evenodd;stroke:#000000;stroke-width:1px;stroke-linecap:butt;stroke-linejoin:miter;stroke-opacity:1"
       id="path3179" />
    <path
       d="M 49.285715,35.714287 C 49.287582,42.027433 44.17029,47.14624 37.857143,47.14624 C 31.543997,47.14624 26.426705,42.027433 26.428572,35.714287 C 26.426705,29.401141 31.543997,24.282334 37.857143,24.282334 C 44.17029,24.282334 49.287582,29.401141 49.285715,35.714287 L 49.285715,35.714287 z "
       transform="matrix(0.8802395,0,0,0.8802395,135.27665,16.062874)"
       style="fill:#f2f2f2;fill-opacity:1;fill-rule:evenodd;stroke:#000000;stroke-width:1px;stroke-linecap:butt;stroke-linejoin:miter;stroke-opacity:1"
       id="path3181" />
    <path
       d="M 49.285715,35.714287 C 49.287582,42.027433 44.17029,47.14624 37.857143,47.14624 C 31.543997,47.14624 26.426705,42.027433 26.428572,35.714287 C 26.426705,29.401141 31.543997,24.282334 37.857143,24.282334 C 44.17029,24.282334 49.287582,29.401141 49.285715,35.714287 L 49.285715,35.714287 z "
       transform="matrix(0.8802395,0,0,0.8802395,95.64807,16.062874)"
       style="fill:#f2f2f2;fill-opacity:1;fill-rule:evenodd;stroke:#000000;stroke-width:1px;stroke-linecap:butt;stroke-linejoin:miter;stroke-opacity:1"
       id="path3183" />
    <path
       d="M 49.285715,35.714287 C 49.287582,42.027433 44.17029,47.14624 37.857143,47.14624 C 31.543997,47.14624 26.426705,42.027433 26.428572,35.714287 C 26.426705,29.401141 31.543997,24.282334 37.857143,24.282334 C 44.17029,24.282334 49.287582,29.401141 49.285715,35.714287 L 49.285715,35.714287 z "
       transform="matrix(0.8802395,0,0,0.8802395,56.019503,16.062874)"
       style="fill:#f2f2f2;fill-opacity:1;fill-rule:evenodd;stroke:#000000;stroke-width:1px;stroke-linecap:butt;stroke-linejoin:miter;stroke-opacity:1"
       id="path3185" />
  </g>
  <g
     transform="translate(1.214286,161.73927)"
     style="fill:#f2f2f2;fill-opacity:1"
     id="g3187">
    <path
       d="M 49.285715,35.714287 C 49.287582,42.027433 44.17029,47.14624 37.857143,47.14624 C 31.543997,47.14624 26.426705,42.027433 26.428572,35.714287 C 26.426705,29.401141 31.543997,24.282334 37.857143,24.282334 C 44.17029,24.282334 49.287582,29.401141 49.285715,35.714287 L 49.285715,35.714287 z "
       transform="matrix(0.8802395,0,0,0.8802395,16.390932,16.062874)"
       style="fill:#f2f2f2;fill-opacity:1;fill-rule:evenodd;stroke:#000000;stroke-width:1px;stroke-linecap:butt;stroke-linejoin:miter;stroke-opacity:1"
       id="path3189" />
    <path
       d="M 49.285715,35.714287 C 49.287582,42.027433 44.17029,47.14624 37.857143,47.14624 C 31.543997,47.14624 26.426705,42.027433 26.428572,35.714287 C 26.426705,29.401141 31.543997,24.282334 37.857143,24.282334 C 44.17029,24.282334 49.287582,29.401141 49.285715,35.714287 L 49.285715,35.714287 z "
       transform="matrix(0.8802395,0,0,0.8802395,214.53379,16.062874)"
       style="fill:#f2f2f2;fill-opacity:1;fill-rule:evenodd;stroke:#000000;stroke-width:1px;stroke-linecap:butt;stroke-linejoin:miter;stroke-opacity:1"
       id="path3191" />
    <path
       d="M 49.285715,35.714287 C 49.287582,42.027433 44.17029,47.14624 37.857143,47.14624 C 31.543997,47.14624 26.426705,42.027433 26.428572,35.714287 C 26.426705,29.401141 31.543997,24.282334 37.857143,24.282334 C 44.17029,24.282334 49.287582,29.401141 49.285715,35.714287 L 49.285715,35.714287 z "
       transform="matrix(0.8802395,0,0,0.8802395,174.90521,16.062874)"
       style="fill:#f2f2f2;fill-opacity:1;fill-rule:evenodd;stroke:#000000;stroke-width:1px;stroke-linecap:butt;stroke-linejoin:miter;stroke-opacity:1"
       id="path3193" />
    <path
       d="M 49.285715,35.714287 C 49.287582,42.027433 44.17029,47.14624 37.857143,47.14624 C 31.543997,47.14624 26.426705,42.027433 26.428572,35.714287 C 26.426705,29.401141 31.543997,24.282334 37.857143,24.282334 C 44.17029,24.282334 49.287582,29.401141 49.285715,35.714287 L 49.285715,35.714287 z "
       transform="matrix(0.8802395,0,0,0.8802395,135.27665,16.062874)"
       style="fill:#f2f2f2;fill-opacity:1;fill-rule:evenodd;stroke:#000000;stroke-width:1px;stroke-linecap:butt;stroke-linejoin:miter;stroke-opacity:1"
       id="path3195" />
    <path
       d="M 49.285715,35.714287 C 49.287582,42.027433 44.17029,47.14624 37.857143,47.14624 C 31.543997,47.14624 26.426705,42.027433 26.428572,35.714287 C 26.426705,29.401141 31.543997,24.282334 37.857143,24.282334 C 44.17029,24.282334 49.287582,29.401141 49.285715,35.714287 L 49.285715,35.714287 z "
       transform="matrix(0.8802395,0,0,0.8802395,95.64807,16.062874)"
       style="fill:#f2f2f2;fill-opacity:1;fill-rule:evenodd;stroke:#000000;stroke-width:1px;stroke-linecap:butt;stroke-linejoin:miter;stroke-opacity:1"
       id="path3197" />
    <path
       d="M 49.285715,35.714287 C 49.287582,42.027433 44.17029,47.14624 37.857143,47.14624 C 31.543997,47.14624 26.426705,42.027433 26.428572,35.714287 C 26.426705,29.401141 31.543997,24.282334 37.857143,24.282334 C 44.17029,24.282334 49.287582,29.401141 49.285715,35.714287 L 49.285715,35.714287 z "
       transform="matrix(0.8802395,0,0,0.8802395,56.019503,16.062874)"
       style="fill:#f2f2f2;fill-opacity:1;fill-rule:evenodd;stroke:#000000;stroke-width:1px;stroke-linecap:butt;stroke-linejoin:miter;stroke-opacity:1"
       id="path3199" />
  </g>
  <g
     transform="translate(1.214286,43.260717)"
     style="fill:#000000;fill-opacity:1"
     id="g3226">
    <path
       d="M 49.285715,35.714287 C 49.287582,42.027433 44.17029,47.14624 37.857143,47.14624 C 31.543997,47.14624 26.426705,42.027433 26.428572,35.714287 C 26.426705,29.401141 31.543997,24.282334 37.857143,24.282334 C 44.17029,24.282334 49.287582,29.401141 49.285715,35.714287 L 49.285715,35.714287 z "
       transform="matrix(0.8802395,0,0,0.8802395,16.390932,16.062874)"
       style="fill:#000000;fill-opacity:1;fill-rule:evenodd;stroke:#000000;stroke-width:1px;stroke-linecap:butt;stroke-linejoin:miter;stroke-opacity:1"
       id="path3228" />
    <path
       d="M 49.285715,35.714287 C 49.287582,42.027433 44.17029,47.14624 37.857143,47.14624 C 31.543997,47.14624 26.426705,42.027433 26.428572,35.714287 C 26.426705,29.401141 31.543997,24.282334 37.857143,24.282334 C 44.17029,24.282334 49.287582,29.401141 49.285715,35.714287 L 49.285715,35.714287 z "
       transform="matrix(0.8802395,0,0,0.8802395,214.53379,16.062874)"
       style="fill:#000000;fill-opacity:1;fill-rule:evenodd;stroke:#000000;stroke-width:1px;stroke-linecap:butt;stroke-linejoin:miter;stroke-opacity:1"
       id="path3230" />
    <path
       d="M 49.285715,35.714287 C 49.287582,42.027433 44.17029,47.14624 37.857143,47.14624 C 31.543997,47.14624 26.426705,42.027433 26.428572,35.714287 C 26.426705,29.401141 31.543997,24.282334 37.857143,24.282334 C 44.17029,24.282334 49.287582,29.401141 49.285715,35.714287 L 49.285715,35.714287 z "
       transform="matrix(0.8802395,0,0,0.8802395,174.90521,16.062874)"
       style="fill:#000000;fill-opacity:1;fill-rule:evenodd;stroke:#000000;stroke-width:1px;stroke-linecap:butt;stroke-linejoin:miter;stroke-opacity:1"
       id="path3232" />
    <path
       d="M 49.285715,35.714287 C 49.287582,42.027433 44.17029,47.14624 37.857143,47.14624 C 31.543997,47.14624 26.426705,42.027433 26.428572,35.714287 C 26.426705,29.401141 31.543997,24.282334 37.857143,24.282334 C 44.17029,24.282334 49.287582,29.401141 49.285715,35.714287 L 49.285715,35.714287 z "
       transform="matrix(0.8802395,0,0,0.8802395,135.27665,16.062874)"
       style="fill:#000000;fill-opacity:1;fill-rule:evenodd;stroke:#000000;stroke-width:1px;stroke-linecap:butt;stroke-linejoin:miter;stroke-opacity:1"
       id="path3234" />
    <path
       d="M 49.285715,35.714287 C 49.287582,42.027433 44.17029,47.14624 37.857143,47.14624 C 31.543997,47.14624 26.426705,42.027433 26.428572,35.714287 C 26.426705,29.401141 31.543997,24.282334 37.857143,24.282334 C 44.17029,24.282334 49.287582,29.401141 49.285715,35.714287 L 49.285715,35.714287 z "
       transform="matrix(0.8802395,0,0,0.8802395,95.64807,16.062874)"
       style="fill:#000000;fill-opacity:1;fill-rule:evenodd;stroke:#000000;stroke-width:1px;stroke-linecap:butt;stroke-linejoin:miter;stroke-opacity:1"
       id="path3236" />
    <path
       d="M 49.285715,35.714287 C 49.287582,42.027433 44.17029,47.14624 37.857143,47.14624 C 31.543997,47.14624 26.426705,42.027433 26.428572,35.714287 C 26.426705,29.401141 31.543997,24.282334 37.857143,24.282334 C 44.17029,24.282334 49.287582,29.401141 49.285715,35.714287 L 49.285715,35.714287 z "
       transform="matrix(0.8802395,0,0,0.8802395,56.019503,16.062874)"
       style="fill:#000000;fill-opacity:1;fill-rule:evenodd;stroke:#000000;stroke-width:1px;stroke-linecap:butt;stroke-linejoin:miter;stroke-opacity:1"
       id="path3238" />
  </g>
  <g
     transform="translate(1.214286,122.24643)"
     style="fill:#000000;fill-opacity:1"
     id="g3240">
    <path
       d="M 49.285715,35.714287 C 49.287582,42.027433 44.17029,47.14624 37.857143,47.14624 C 31.543997,47.14624 26.426705,42.027433 26.428572,35.714287 C 26.426705,29.401141 31.543997,24.282334 37.857143,24.282334 C 44.17029,24.282334 49.287582,29.401141 49.285715,35.714287 L 49.285715,35.714287 z "
       transform="matrix(0.8802395,0,0,0.8802395,16.390932,16.062874)"
       style="fill:#000000;fill-opacity:1;fill-rule:evenodd;stroke:#000000;stroke-width:1px;stroke-linecap:butt;stroke-linejoin:miter;stroke-opacity:1"
       id="path3242" />
    <path
       d="M 49.285715,35.714287 C 49.287582,42.027433 44.17029,47.14624 37.857143,47.14624 C 31.543997,47.14624 26.426705,42.027433 26.428572,35.714287 C 26.426705,29.401141 31.543997,24.282334 37.857143,24.282334 C 44.17029,24.282334 49.287582,29.401141 49.285715,35.714287 L 49.285715,35.714287 z "
       transform="matrix(0.8802395,0,0,0.8802395,214.53379,16.062874)"
       style="fill:#000000;fill-opacity:1;fill-rule:evenodd;stroke:#000000;stroke-width:1px;stroke-linecap:butt;stroke-linejoin:miter;stroke-opacity:1"
       id="path3244" />
    <path
       d="M 49.285715,35.714287 C 49.287582,42.027433 44.17029,47.14624 37.857143,47.14624 C 31.543997,47.14624 26.426705,42.027433 26.428572,35.714287 C 26.426705,29.401141 31.543997,24.282334 37.857143,24.282334 C 44.17029,24.282334 49.287582,29.401141 49.285715,35.714287 L 49.285715,35.714287 z "
       transform="matrix(0.8802395,0,0,0.8802395,174.90521,16.062874)"
       style="fill:#000000;fill-opacity:1;fill-rule:evenodd;stroke:#000000;stroke-width:1px;stroke-linecap:butt;stroke-linejoin:miter;stroke-opacity:1"
       id="path3246" />
    <path
       d="M 49.285715,35.714287 C 49.287582,42.027433 44.17029,47.14624 37.857143,47.14624 C 31.543997,47.14624 26.426705,42.027433 26.428572,35.714287 C 26.426705,29.401141 31.543997,24.282334 37.857143,24.282334 C 44.17029,24.282334 49.287582,29.401141 49.285715,35.714287 L 49.285715,35.714287 z "
       transform="matrix(0.8802395,0,0,0.8802395,135.27665,16.062874)"
       style="fill:#000000;fill-opacity:1;fill-rule:evenodd;stroke:#000000;stroke-width:1px;stroke-linecap:butt;stroke-linejoin:miter;stroke-opacity:1"
       id="path3248" />
    <path
       d="M 49.285715,35.714287 C 49.287582,42.027433 44.17029,47.14624 37.857143,47.14624 C 31.543997,47.14624 26.426705,42.027433 26.428572,35.714287 C 26.426705,29.401141 31.543997,24.282334 37.857143,24.282334 C 44.17029,24.282334 49.287582,29.401141 49.285715,35.714287 L 49.285715,35.714287 z "
       transform="matrix(0.8802395,0,0,0.8802395,95.64807,16.062874)"
       style="fill:#000000;fill-opacity:1;fill-rule:evenodd;stroke:#000000;stroke-width:1px;stroke-linecap:butt;stroke-linejoin:miter;stroke-opacity:1"
       id="path3250" />
    <path
       d="M 49.285715,35.714287 C 49.287582,42.027433 44.17029,47.14624 37.857143,47.14624 C 31.543997,47.14624 26.426705,42.027433 26.428572,35.714287 C 26.426705,29.401141 31.543997,24.282334 37.857143,24.282334 C 44.17029,24.282334 49.287582,29.401141 49.285715,35.714287 L 49.285715,35.714287 z "
       transform="matrix(0.8802395,0,0,0.8802395,56.019503,16.062874)"
       style="fill:#000000;fill-opacity:1;fill-rule:evenodd;stroke:#000000;stroke-width:1px;stroke-linecap:butt;stroke-linejoin:miter;stroke-opacity:1"
       id="path3252" />
  </g>
  <g
     transform="translate(1.214286,201.23213)"
     style="fill:#000000;fill-opacity:1"
     id="g3254">
    <path
       d="M 49.285715,35.714287 C 49.287582,42.027433 44.17029,47.14624 37.857143,47.14624 C 31.543997,47.14624 26.426705,42.027433 26.428572,35.714287 C 26.426705,29.401141 31.543997,24.282334 37.857143,24.282334 C 44.17029,24.282334 49.287582,29.401141 49.285715,35.714287 L 49.285715,35.714287 z "
       transform="matrix(0.8802395,0,0,0.8802395,16.390932,16.062874)"
       style="fill:#000000;fill-opacity:1;fill-rule:evenodd;stroke:#000000;stroke-width:1px;stroke-linecap:butt;stroke-linejoin:miter;stroke-opacity:1"
       id="path3256" />
    <path
       d="M 49.285715,35.714287 C 49.287582,42.027433 44.17029,47.14624 37.857143,47.14624 C 31.543997,47.14624 26.426705,42.027433 26.428572,35.714287 C 26.426705,29.401141 31.543997,24.282334 37.857143,24.282334 C 44.17029,24.282334 49.287582,29.401141 49.285715,35.714287 L 49.285715,35.714287 z "
       transform="matrix(0.8802395,0,0,0.8802395,214.53379,16.062874)"
       style="fill:#000000;fill-opacity:1;fill-rule:evenodd;stroke:#000000;stroke-width:1px;stroke-linecap:butt;stroke-linejoin:miter;stroke-opacity:1"
       id="path3258" />
    <path
       d="M 49.285715,35.714287 C 49.287582,42.027433 44.17029,47.14624 37.857143,47.14624 C 31.543997,47.14624 26.426705,42.027433 26.428572,35.714287 C 26.426705,29.401141 31.543997,24.282334 37.857143,24.282334 C 44.17029,24.282334 49.287582,29.401141 49.285715,35.714287 L 49.285715,35.714287 z "
       transform="matrix(0.8802395,0,0,0.8802395,174.90521,16.062874)"
       style="fill:#000000;fill-opacity:1;fill-rule:evenodd;stroke:#000000;stroke-width:1px;stroke-linecap:butt;stroke-linejoin:miter;stroke-opacity:1"
       id="path3260" />
    <path
       d="M 49.285715,35.714287 C 49.287582,42.027433 44.17029,47.14624 37.857143,47.14624 C 31.543997,47.14624 26.426705,42.027433 26.428572,35.714287 C 26.426705,29.401141 31.543997,24.282334 37.857143,24.282334 C 44.17029,24.282334 49.287582,29.401141 49.285715,35.714287 L 49.285715,35.714287 z "
       transform="matrix(0.8802395,0,0,0.8802395,135.27665,16.062874)"
       style="fill:#000000;fill-opacity:1;fill-rule:evenodd;stroke:#000000;stroke-width:1px;stroke-linecap:butt;stroke-linejoin:miter;stroke-opacity:1"
       id="path3262" />
    <path
       d="M 49.285715,35.714287 C 49.287582,42.027433 44.17029,47.14624 37.857143,47.14624 C 31.543997,47.14624 26.426705,42.027433 26.428572,35.714287 C 26.426705,29.401141 31.543997,24.282334 37.857143,24.282334 C 44.17029,24.282334 49.287582,29.401141 49.285715,35.714287 L 49.285715,35.714287 z "
       transform="matrix(0.8802395,0,0,0.8802395,95.64807,16.062874)"
       style="fill:#000000;fill-opacity:1;fill-rule:evenodd;stroke:#000000;stroke-width:1px;stroke-linecap:butt;stroke-linejoin:miter;stroke-opacity:1"
       id="path3264" />
    <path
       d="M 49.285715,35.714287 C 49.287582,42.027433 44.17029,47.14624 37.857143,47.14624 C 31.543997,47.14624 26.426705,42.027433 26.428572,35.714287 C 26.426705,29.401141 31.543997,24.282334 37.857143,24.282334 C 44.17029,24.282334 49.287582,29.401141 49.285715,35.714287 L 49.285715,35.714287 z "
       transform="matrix(0.8802395,0,0,0.8802395,56.019503,16.062874)"
       style="fill:#000000;fill-opacity:1;fill-rule:evenodd;stroke:#000000;stroke-width:1px;stroke-linecap:butt;stroke-linejoin:miter;stroke-opacity:1"
       id="path3266" />
  </g>
</svg>
